<svg xmlns="http://www.w3.org/2000/svg" width="335.448" height="250.341" viewBox="0 0 335.448 250.341">
  <g id="undraw_web_developer_p3e5" transform="translate(0 -139.659)">
    <path id="Path_1" data-name="Path 1" d="M903.955,749.13c-3.083,13.735-13.887,22.319-13.887,22.319s-5.8-13.686-2.722-27.421,13.887-22.319,13.887-22.319S907.038,735.395,903.955,749.13Z" transform="translate(-585.501 -388.399)" fill="#3f3d56"/>
    <path id="Path_2" data-name="Path 2" d="M903.37,758.951c-8.635,9.981-9.6,25.216-9.6,25.216s13.035-.946,21.67-10.926,9.6-25.217,9.6-25.217S912.005,748.97,903.37,758.951Z" transform="translate(-589.592 -401.125)" fill="#947a12"/>
    <path id="Path_3" data-name="Path 3" d="M188.328,653.667h16.263l40.076-18.345s28.46-13.589,26.136,12.23-6.389,60.472-6.389,60.472-12.778-6.794-19.748-4.756-2.323-41.447-2.323-41.447-56.919,31.935-62.147,27.858-6.389-32.614-6.389-32.614Z" transform="translate(-124.439 -342.893)" fill="#2f2e41"/>
    <path id="Path_4" data-name="Path 4" d="M188.328,653.667h16.263l40.076-18.345s28.46-13.589,26.136,12.23-6.389,60.472-6.389,60.472-12.778-6.794-19.748-4.756-2.323-41.447-2.323-41.447-56.919,31.935-62.147,27.858-6.389-32.614-6.389-32.614Z" transform="translate(-124.439 -342.893)" opacity="0.1"/>
    <path id="Path_5" data-name="Path 5" d="M246.288,558.82,265.97,591.9l45.884,44.844s42.4,11.551,36.591,19.7-41.237-8.154-41.237-8.154-52.854-44.844-54.6-48.242S231.7,564.722,231.7,564.722Z" transform="translate(-156.777 -307.625)" fill="#a0616a"/>
    <path id="Path_6" data-name="Path 6" d="M246.288,558.82,265.97,591.9l45.884,44.844s42.4,11.551,36.591,19.7-41.237-8.154-41.237-8.154-52.854-44.844-54.6-48.242S231.7,564.722,231.7,564.722Z" transform="translate(-156.777 -307.625)" opacity="0.1"/>
    <path id="Path_7" data-name="Path 7" d="M214.027,507.092l12.778,29.217s-2.9,14.268-7.551,15.628-24.394-17.666-24.394-17.666Z" transform="translate(-136.199 -282.61)" fill="#d0cde1"/>
    <path id="Path_8" data-name="Path 8" d="M214.027,507.092l12.778,29.217s-2.9,14.268-7.551,15.628-24.394-17.666-24.394-17.666Z" transform="translate(-136.199 -282.61)" fill="#dca35c" opacity="0.69"/>
    <path id="Path_9" data-name="Path 9" d="M569.106,644.086l3.775,18.214a1.324,1.324,0,0,1-.019.615L555.74,725.509a.984.984,0,0,1-1.022.786,1.063,1.063,0,0,1-.871-1l-2.369-24.384a1.325,1.325,0,0,1,.042-.481L567.237,644a.993.993,0,0,1,.962-.784A1.023,1.023,0,0,1,569.106,644.086Z" transform="translate(-335.394 -348.44)" fill="#2f2e41"/>
    <path id="Path_10" data-name="Path 10" d="M507.2,575.493l3.484,15.628-15.1,57.075L492.1,630.529Z" transform="translate(-274.873 -278.308)" fill="#f2f2f2"/>
    <path id="Path_11" data-name="Path 11" d="M415.791,783.08c.581,2.038,60.4-.68,60.985-1.359A15.663,15.663,0,0,0,478.054,779c.546-1.359,1.045-2.718,1.045-2.718l-2.323-22-59.243-2.46S416.053,770.47,415.751,779A23.844,23.844,0,0,0,415.791,783.08Z" transform="translate(-259.554 -400.962)" fill="#2f2e41"/>
    <path id="Path_12" data-name="Path 12" d="M443.388,689.965l1.161,19.024H418.413V689.965Z" transform="translate(-233.716 -333.667)" opacity="0.1"/>
    <path id="Path_13" data-name="Path 13" d="M379.568,701.773l.156-.037-.737,8.19h-14.52v-8.154Z" transform="translate(-203.583 -339.359)" opacity="0.1"/>
    <path id="Path_14" data-name="Path 14" d="M415.791,808.532c.581,2.039,60.4-.68,60.985-1.359a15.628,15.628,0,0,0,1.278-2.718h-62.3A23.818,23.818,0,0,0,415.791,808.532Z" transform="translate(-259.553 -426.415)" opacity="0.1"/>
    <ellipse id="Ellipse_1" data-name="Ellipse 1" cx="26.136" cy="30.576" rx="26.136" ry="30.576" transform="translate(60.404 153.818)" fill="#a0616a"/>
    <path id="Path_15" data-name="Path 15" d="M203.726,457.429s-8.712,17.666-10.455,27.178-26.136-19.025-26.136-19.025l-3.194-9.852s22.942-12.57,21.2-22.762S203.726,457.429,203.726,457.429Z" transform="translate(-118.927 -245.856)" fill="#a0616a"/>
    <path id="Path_16" data-name="Path 16" d="M229.318,584.722l23.813,36.691,56.919,49.6S351.288,681.205,342,688.68s-36.01-6.795-36.01-6.795-57.5-36.012-69.7-50.96-34.849-40.088-34.849-40.088Z" transform="translate(-139.873 -320.152)" fill="#a0616a"/>
    <path id="Path_17" data-name="Path 17" d="M126.818,691.281l6.97,12.909,41.6-15.309a28.638,28.638,0,0,1,27.23,3.843c7.26,5.351,11.907,13.844,1.452,26.414-20.909,25.14-34.849,11.551-34.849,11.551s-70.278,38.73-81.894,19.7-12.2-28.538-12.2-28.538S119.848,689.243,126.818,691.281Z" transform="translate(-69.318 -369.636)" fill="#2f2e41"/>
    <path id="Path_18" data-name="Path 18" d="M312.423,776.361s18.586,14.268-3.485,21.063-38.333-2.718-38.333-2.718-19.167,0-19.167-11.551,6.389-12.91,6.389-12.91l19.748,3.4S301.388,766.168,312.423,776.361Z" transform="translate(-167.801 -409.871)" fill="#d0cde1"/>
    <path id="Path_19" data-name="Path 19" d="M235.706,379.877c1.779.928,3.543,2.026,5.477,2.3a4.732,4.732,0,0,0,5.052-2.532,9.138,9.138,0,0,0,.574-3.594c.07-3.731-.161-7.765-2.182-10.652-1.286-1.838-3.164-3-4.5-4.789a23.606,23.606,0,0,1-2.272-4.344c-2.589-5.689-6.423-11.157-11.752-12.8a21.885,21.885,0,0,0-6.859-.614l-13.418.221a20.137,20.137,0,0,0-6.455.813c-4.319,1.528-7.464,5.776-10.344,9.84A62.181,62.181,0,0,0,183.1,363.3a38.284,38.284,0,0,0-3.405,16.466,17.882,17.882,0,0,0,.482,4.357,26.327,26.327,0,0,0,1.464,3.762c2.516,5.782,4.01,13,1.177,18.582,4.923-2.352,9.793-5.437,13.041-10.363,1.453-2.2,2.592-4.784,4.528-6.4s5.09-1.758,6.332.616a7.568,7.568,0,0,1,.64,3.11,16.464,16.464,0,0,0,.734,5.249c.646,1.617,2.184,2.922,3.652,2.438,2.529-.833,2.287-5.374,4.234-7.436,1.479-1.566,3.761-1.267,5.662-1.978,2.214-.828,3.875-3.072,4.822-5.556.72-1.888.709-6.828,2.071-7.851C230.241,377.013,234.123,379.051,235.706,379.877Z" transform="translate(-127.725 -203.174)" fill="#2f2e41"/>
    <path id="Path_20" data-name="Path 20" d="M104.906,472.307a5.931,5.931,0,0,1,3.588.011c3.728,1.171,12.086,4.271,13.878,8.988,2.323,6.115,10.455,15.628,10.455,15.628s11.035,12.91,8.712,21.743S130.5,537.7,130.5,537.7s2.323,42.127-9.293,53-16.263,3.4-16.263,13.589-36.01,42.126-42.98,22.422c0,0,3.485-36.691,2.323-49.6C63.146,564.386,64.823,485,104.906,472.307Z" transform="translate(-61.968 -265.656)" fill="#dca35c"/>
    <path id="Path_21" data-name="Path 21" d="M167.13,504.105s35.429,30.576,29.04,43.485c0,0-21.49,12.23-26.136,11.551s-22.652-24.46-27.3-26.5S135.766,493.913,167.13,504.105Z" transform="translate(-105.564 -280.302)" fill="#dca35c"/>
    <rect id="Rectangle_9" data-name="Rectangle 9" width="67.923" height="1.033" transform="translate(267.213 382.438)" fill="#3f3d56"/>
  </g>
</svg>
