<svg xmlns="http://www.w3.org/2000/svg" width="275" height="225" viewBox="0 0 275 225">
  <g id="undraw_web_developer_p3e5" transform="translate(0 0)">
    <path id="Path_1" data-name="Path 1" d="M896.582,737.529a25.19,25.19,0,0,1-8.04,12.876s-3.361-7.9-1.576-15.82a25.192,25.192,0,0,1,8.04-12.876S898.367,729.6,896.582,737.529Z" transform="translate(-675.74 -528.261)" fill="#3f3d56"/>
    <path id="Path_2" data-name="Path 2" d="M899.328,754.328c-5,5.758-5.559,14.548-5.559,14.548s7.546-.546,12.546-6.3,5.559-14.548,5.559-14.548S904.327,748.57,899.328,754.328Z" transform="translate(-681.193 -546.736)" fill="#947a12"/>
    <path id="Path_3" data-name="Path 3" d="M182.214,644.394h9.415l23.2-10.584s16.477-7.84,15.132,7.056-3.7,34.888-3.7,34.888-7.4-3.92-11.433-2.744-1.345-23.912-1.345-23.912-32.953,18.424-35.98,16.072-3.7-18.816-3.7-18.816Z" transform="translate(-145.226 -465.101)" fill="#2f2e41"/>
    <path id="Path_4" data-name="Path 4" d="M182.214,644.394h9.415l23.2-10.584s16.477-7.84,15.132,7.056-3.7,34.888-3.7,34.888-7.4-3.92-11.433-2.744-1.345-23.912-1.345-23.912-32.953,18.424-35.98,16.072-3.7-18.816-3.7-18.816Z" transform="translate(-145.226 -465.101)" opacity="0.1"/>
    <path id="Path_5" data-name="Path 5" d="M240.147,558.82,251.541,577.9l26.564,25.872s24.547,6.664,21.184,11.368-23.874-4.7-23.874-4.7-30.6-25.872-31.608-27.832S231.7,562.225,231.7,562.225Z" transform="translate(-188.325 -413.9)" fill="#a0616a"/>
    <path id="Path_6" data-name="Path 6" d="M240.147,558.82,251.541,577.9l26.564,25.872s24.547,6.664,21.184,11.368-23.874-4.7-23.874-4.7-30.6-25.872-31.608-27.832S231.7,562.225,231.7,562.225Z" transform="translate(-188.325 -413.9)" opacity="0.1"/>
    <path id="Path_7" data-name="Path 7" d="M205.957,507.092l7.4,16.856s-1.681,8.232-4.371,9.016-14.123-10.192-14.123-10.192Z" transform="translate(-160.899 -377.583)" fill="#d0cde1"/>
    <path id="Path_8" data-name="Path 8" d="M205.957,507.092l7.4,16.856s-1.681,8.232-4.371,9.016-14.123-10.192-14.123-10.192Z" transform="translate(-160.899 -377.583)" opacity="0.1"/>
    <path id="Path_9" data-name="Path 9" d="M561.682,643.719l2.185,10.508a.762.762,0,0,1-.011.355l-9.912,36.112a.569.569,0,0,1-.591.453.614.614,0,0,1-.5-.579L551.476,676.5a.763.763,0,0,1,.024-.277l9.1-32.552a.574.574,0,0,1,.557-.452A.592.592,0,0,1,561.682,643.719Z" transform="translate(-426.375 -473.154)" fill="#2f2e41"/>
    <path id="Path_10" data-name="Path 10" d="M500.839,575.493l2.017,9.016-8.743,32.928L492.1,607.245Z" transform="translate(-366.335 -404.04)" fill="#f2f2f2"/>
    <path id="Path_11" data-name="Path 11" d="M415.752,769.857c.336,1.176,34.971-.392,35.307-.784a9.019,9.019,0,0,0,.74-1.568c.316-.784.605-1.568.605-1.568l-1.345-12.693-34.3-1.419s-.858,10.757-1.032,15.68A13.711,13.711,0,0,0,415.752,769.857Z" transform="translate(-325.299 -549.404)" fill="#2f2e41"/>
    <path id="Path_12" data-name="Path 12" d="M432.872,689.965l.672,10.976H418.413V689.965Z" transform="translate(-311.483 -484.409)" opacity="0.1"/>
    <path id="Path_13" data-name="Path 13" d="M373.21,701.757l.09-.021-.427,4.725h-8.406v-4.7Z" transform="translate(-271.323 -492.673)" opacity="0.1"/>
    <path id="Path_14" data-name="Path 14" d="M415.752,806.807c.336,1.176,34.971-.392,35.307-.784a9,9,0,0,0,.74-1.568h-36.07A13.7,13.7,0,0,0,415.752,806.807Z" transform="translate(-325.299 -586.355)" opacity="0.1"/>
    <ellipse id="Ellipse_1" data-name="Ellipse 1" cx="15.132" cy="17.64" rx="15.132" ry="17.64" transform="translate(34.971 88.741)" fill="#a0616a"/>
    <path id="Path_15" data-name="Path 15" d="M186.974,446.286s-5.044,10.192-6.053,15.68-15.132-10.976-15.132-10.976l-1.849-5.684s13.282-7.252,12.273-13.132S186.974,446.286,186.974,446.286Z" transform="translate(-137.88 -324.225)" fill="#a0616a"/>
    <path id="Path_16" data-name="Path 16" d="M217.58,584.722l13.787,21.168,32.953,28.616s23.874,5.88,18.494,10.192-20.848-3.92-20.848-3.92-33.29-20.776-40.351-29.4-20.175-23.128-20.175-23.128Z" transform="translate(-165.796 -432.085)" fill="#a0616a"/>
    <path id="Path_17" data-name="Path 17" d="M105.053,689.49l4.035,7.448,24.082-8.832a16.628,16.628,0,0,1,15.765,2.217c4.2,3.087,6.893,7.987.841,15.239-12.105,14.5-20.175,6.664-20.175,6.664s-40.687,22.344-47.412,11.368-7.061-16.464-7.061-16.464S101.018,688.314,105.053,689.49Z" transform="translate(-71.763 -503.925)" fill="#2f2e41"/>
    <path id="Path_18" data-name="Path 18" d="M286.745,773.773s10.76,8.232-2.018,12.152-22.193-1.568-22.193-1.568-11.1,0-11.1-6.664,3.7-7.448,3.7-7.448l11.433,1.96S280.356,767.893,286.745,773.773Z" transform="translate(-203.017 -562.337)" fill="#d0cde1"/>
    <path id="Path_19" data-name="Path 19" d="M212.12,364.2a10.293,10.293,0,0,0,3.171,1.324,2.742,2.742,0,0,0,2.925-1.461,5.255,5.255,0,0,0,.332-2.074c.041-2.153-.093-4.48-1.263-6.145-.745-1.06-1.832-1.729-2.6-2.763a13.6,13.6,0,0,1-1.316-2.506c-1.5-3.282-3.719-6.437-6.8-7.383a12.715,12.715,0,0,0-3.971-.354l-7.768.128a11.7,11.7,0,0,0-3.737.469c-2.5.881-4.321,3.333-5.988,5.677a35.855,35.855,0,0,0-3.434,5.526,22.021,22.021,0,0,0-1.971,9.5,10.28,10.28,0,0,0,.279,2.514,15.155,15.155,0,0,0,.847,2.17c1.457,3.336,2.322,7.5.681,10.72a17.833,17.833,0,0,0,7.55-5.979,16.19,16.19,0,0,1,2.621-3.693c1.121-.933,2.947-1.014,3.666.355a4.352,4.352,0,0,1,.371,1.794,9.467,9.467,0,0,0,.425,3.028c.374.933,1.264,1.685,2.114,1.406,1.464-.481,1.324-3.1,2.451-4.29.856-.9,2.178-.731,3.278-1.141a5.315,5.315,0,0,0,2.792-3.205c.417-1.089.411-3.939,1.2-4.529C208.956,362.553,211.2,363.728,212.12,364.2Z" transform="translate(-149.605 -262.261)" fill="#2f2e41"/>
    <path id="Path_20" data-name="Path 20" d="M86.827,472.191a3.445,3.445,0,0,1,2.077.006c2.159.676,7,2.464,8.035,5.185,1.345,3.528,6.053,9.016,6.053,9.016s6.389,7.448,5.044,12.544-6.389,10.976-6.389,10.976,1.345,24.3-5.38,30.576-9.415,1.96-9.415,7.84S66,572.638,61.968,561.27c0,0,2.018-21.168,1.345-28.616C62.65,525.314,63.621,479.515,86.827,472.191Z" transform="translate(-61.968 -352.97)" fill="#d0cde1"/>
    <path id="Path_21" data-name="Path 21" d="M155.714,503.35s20.512,17.64,16.813,25.088c0,0-12.442,7.056-15.132,6.664s-13.114-14.112-15.8-15.288S137.556,497.47,155.714,503.35Z" transform="translate(-120.07 -374.233)" fill="#d0cde1"/>
    <ellipse id="Ellipse_2" data-name="Ellipse 2" cx="16.611" cy="19.365" rx="16.611" ry="19.365" transform="translate(110.674 51.379)" fill="#f2f2f2"/>
    <path id="Path_22" data-name="Path 22" d="M825.737,171.915H732.649V149.207h93.088Zm-92.678-.478h92.267V149.685H733.059Z" transform="translate(-561.249 -126.32)" fill="#3f3d56"/>
    <rect id="Rectangle_2" data-name="Rectangle 2" width="92.678" height="22.229" transform="translate(165.044 27.428)" fill="#947a12"/>
    <ellipse id="Ellipse_3" data-name="Ellipse 3" cx="1.435" cy="1.673" rx="1.435" ry="1.673" transform="translate(105.022 2.868)" fill="#6c63ff"/>
    <ellipse id="Ellipse_4" data-name="Ellipse 4" cx="1.435" cy="1.673" rx="1.435" ry="1.673" transform="translate(109.943 2.868)" fill="#6c63ff"/>
    <ellipse id="Ellipse_5" data-name="Ellipse 5" cx="1.435" cy="1.673" rx="1.435" ry="1.673" transform="translate(114.864 2.868)" fill="#6c63ff"/>
    <path id="Path_23" data-name="Path 23" d="M635.129,203.373H462.487V72.386H635.13ZM462.9,202.895H634.719V72.864H462.9Z" transform="translate(-360.13 -72.386)" fill="#3f3d56"/>
    <rect id="Rectangle_3" data-name="Rectangle 3" width="172.233" height="0.478" transform="translate(102.562 7.251)" fill="#3f3d56"/>
    <path id="Path_24" data-name="Path 24" d="M475.36,82.629A1.935,1.935,0,1,1,477,80.717,1.792,1.792,0,0,1,475.36,82.629Zm0-3.346a1.451,1.451,0,1,0,1.23,1.434,1.344,1.344,0,0,0-1.23-1.434Z" transform="translate(-368.492 -76.892)" fill="#3f3d56"/>
    <path id="Path_25" data-name="Path 25" d="M494.615,82.629a1.935,1.935,0,1,1,1.64-1.912A1.792,1.792,0,0,1,494.615,82.629Zm0-3.346a1.451,1.451,0,1,0,1.23,1.434,1.344,1.344,0,0,0-1.23-1.434Z" transform="translate(-382.826 -76.892)" fill="#3f3d56"/>
    <path id="Path_26" data-name="Path 26" d="M513.87,82.629a1.935,1.935,0,1,1,1.64-1.912A1.792,1.792,0,0,1,513.87,82.629Zm0-3.346a1.451,1.451,0,1,0,1.23,1.434,1.344,1.344,0,0,0-1.23-1.434Z" transform="translate(-397.161 -76.892)" fill="#3f3d56"/>
    <rect id="Rectangle_4" data-name="Rectangle 4" width="0.41" height="123.443" transform="translate(156.431 7.49)" fill="#3f3d56"/>
    <rect id="Rectangle_5" data-name="Rectangle 5" width="30.141" height="4.781" transform="translate(176.013 68.182)" fill="#f2f2f2"/>
    <rect id="Rectangle_6" data-name="Rectangle 6" width="30.141" height="4.781" transform="translate(223.377 68.182)" fill="#f2f2f2"/>
    <path id="Path_27" data-name="Path 27" d="M786.868,297.678H756.317V292.42h30.551Zm-30.141-.478h29.731v-4.3H756.727Z" transform="translate(-578.869 -226.867)" fill="#3f3d56"/>
    <rect id="Rectangle_7" data-name="Rectangle 7" width="30.141" height="4.781" transform="translate(176.013 105.232)" fill="#f2f2f2"/>
    <path id="Path_28" data-name="Path 28" d="M786.868,422.036H756.317v-5.258h30.551Zm-30.141-.478h29.731v-4.3H756.727Z" transform="translate(-578.869 -314.176)" fill="#3f3d56"/>
    <rect id="Rectangle_8" data-name="Rectangle 8" width="77.505" height="4.781" transform="translate(176.116 86.229)" fill="#f2f2f2"/>
    <path id="Path_29" data-name="Path 29" d="M834.634,359.857H756.718V354.6h77.915Zm-77.506-.478h77.095v-4.3H757.128Z" transform="translate(-579.167 -270.521)" fill="#3f3d56"/>
    <path id="Path_30" data-name="Path 30" d="M972.2,297.678H941.651V292.42H972.2ZM942.06,297.2H971.79v-4.3h-29.73Z" transform="translate(-716.838 -226.867)" fill="#3f3d56"/>
    <path id="Path_31" data-name="Path 31" d="M521.9,265.17c-9.315,0-16.867-8.8-16.867-19.663s7.552-19.663,16.867-19.663,16.867,8.8,16.867,19.663S531.21,265.158,521.9,265.17Zm0-38.73c-9.033,0-16.356,8.537-16.356,19.067s7.323,19.067,16.356,19.067,16.356-8.537,16.356-19.067S530.928,226.452,521.9,226.44Z" transform="translate(-391.802 -180.125)" fill="#3f3d56"/>
    <rect id="Rectangle_9" data-name="Rectangle 9" width="72.324" height="0.596" transform="translate(191.176 221.791)" fill="#3f3d56"/>
  </g>
</svg>
