<svg xmlns="http://www.w3.org/2000/svg" width="24" height="24" viewBox="0 0 24 24">
  <g id="design_services-24px" transform="translate(-0.494)">
    <g id="Group_8" data-name="Group 8">
      <rect id="Rectangle_1449" data-name="Rectangle 1449" width="24" height="24" transform="translate(0.494)" fill="none"/>
    </g>
    <g id="Group_10" data-name="Group 10" transform="translate(3.035 3.001)">
      <g id="Group_9" data-name="Group 9">
        <path id="Path_192" data-name="Path 192" d="M16.24,11.51l1.57-1.57L14.06,6.19,12.49,7.76,8.35,3.63a2,2,0,0,0-2.83,0l-1.9,1.9a2,2,0,0,0,0,2.83l4.13,4.13L3,17.25V21H6.75l4.76-4.76,4.13,4.13a2,2,0,0,0,2.83,0l1.9-1.9a2,2,0,0,0,0-2.83Zm-7.06-.44L5.04,6.94l1.89-1.9h0L8.2,6.31,7.02,7.5,8.43,8.91,9.62,7.72l1.45,1.45Zm7.88,7.89-4.13-4.13,1.9-1.9,1.45,1.45-1.19,1.19,1.41,1.41,1.19-1.19,1.27,1.27Z" transform="translate(-3 -3.001)"/>
        <path id="Path_193" data-name="Path 193" d="M20.71,7.04a1,1,0,0,0,0-1.41L18.37,3.29a1.009,1.009,0,0,0-1.41,0L15.13,5.12l3.75,3.75Z" transform="translate(-3 -3.001)"/>
      </g>
    </g>
  </g>
</svg>
